<svg width="71px" height="31px" viewBox="0 0 71 31" version="1.1" xmlns="http://www.w3.org/2000/svg" xmlns:xlink="http://www.w3.org/1999/xlink">
    <g stroke="none" stroke-width="1" fill="none" fill-rule="evenodd">
        <g fill="#FFF" fill-rule="nonzero">
            <g>
                <path d="M69.4128128,0.415028303 C68.6868233,0.00414488939 67.8239105,-0.107130684 67.0141378,0.105710931 C66.204365,0.318552547 65.5141552,0.838052728 65.0955324,1.54978734 L52.4318727,21.7463673 L47.9134093,14.0747569 C47.5141841,13.2587025 46.7682426,12.6564671 45.8743915,12.4285571 L45.8743915,12.4285571 L45.6025225,12.3699545 L45.5590234,12.3699545 L45.3306534,12.3699545 L44.7869154,12.3699545 L44.5639828,12.3699545 L44.5204837,12.3699545 L44.2486147,12.4285571 L44.2486147,12.4285571 C43.3544171,12.6558015 42.6082216,13.258242 42.2095969,14.0747569 L37.6802587,21.7570223 L29.8395557,8.4382542 C26.5945284,2.26259107 19.5475953,-1.03828754 12.6044865,0.36511508 C5.66137774,1.7685177 0.523047462,7.53238964 0.0373915064,14.4621315 C-0.448264449,21.3918734 3.83773211,27.7898057 10.5198874,30.109904 C17.2020426,32.4300023 24.643332,30.1038785 28.7194553,24.4207759 L28.7194553,24.4207759 C29.5689482,22.9988958 29.1327706,21.1742138 27.7271994,20.2698257 C26.3216283,19.3654376 24.4393376,19.6983452 23.445196,21.0271538 L23.445196,21.0271538 C20.9653474,24.3287797 16.5701604,25.6478929 12.6284454,24.2735502 C8.68673032,22.8992074 6.13007775,19.1562228 6.33640969,15.0618986 C6.54274164,10.9675743 9.4632933,7.48956892 13.5240172,6.50237257 C17.5847412,5.51517621 21.8259201,7.25210431 23.9617471,10.7770299 L34.9452562,29.4499427 C35.4404791,30.287863 36.3079446,30.849886 37.2887673,30.9682823 L37.3431411,30.9682823 L37.555199,30.9682823 L37.8325054,30.9682823 L38.0445633,30.9682823 L38.0989371,30.9682823 C39.0797598,30.849886 39.9472253,30.287863 40.4424482,29.4499427 L45.0750966,21.5918696 L49.7077449,29.4499427 C50.0919652,30.1031887 50.7070653,30.5959384 51.436832,30.8350946 L51.4857684,30.8350946 L51.7141384,30.8990247 L51.8120113,30.8990247 L52.0023196,30.9309897 L52.1273794,30.9309897 L52.2959382,30.9309897 L52.5949941,30.9309897 L52.7635529,30.9309897 L52.8886127,30.9309897 L53.078921,30.8990247 L53.1767939,30.8990247 L53.4051638,30.8350946 L53.4541003,30.8350946 C54.184115,30.5963791 54.7993587,30.1035144 55.1831874,29.4499427 L70.5764122,4.61843151 C70.9957696,3.90711221 71.1093401,3.0616363 70.8921089,2.26822671 C70.6748777,1.47481712 70.1446634,0.798554351 69.4182501,0.388390767" id="Shape"></path>
            </g>
        </g>
    </g>
</svg>